HIERARCHY
ROOT Hips
{
	OFFSET 0.00000 0.00000 0.00000
	CHANNELS 6 Xposition Yposition Zposition Zrotation Yrotation Xrotation 
	JOINT LHipJoint
	{
		OFFSET 0 0 0
		CHANNELS 3 Zrotation Yrotation Xrotation
		JOINT LeftHip
		{
			OFFSET 1.76014 -1.80163 0.38499
			CHANNELS 3 Zrotation Yrotation Xrotation
			JOINT LeftKnee
			{
				OFFSET 2.46817 -6.78126 0.00000
				CHANNELS 3 Zrotation Yrotation Xrotation
				JOINT LeftAnkle
				{
					OFFSET 2.79348 -7.67503 0.00000
					CHANNELS 3 Zrotation Yrotation Xrotation
					JOINT LeftToe
					{
						OFFSET 0.09421 -0.25885 1.91403
						CHANNELS 3 Zrotation Yrotation Xrotation
						End Site
						{
							OFFSET 0.00000 -0.00000 0.97975
						}
					}
				}
			}
		}
	}
	JOINT RHipJoint
	{
		OFFSET 0 0 0
		CHANNELS 3 Zrotation Yrotation Xrotation
		JOINT RightHip
		{
			OFFSET -1.77926 -1.80163 0.38499
			CHANNELS 3 Zrotation Yrotation Xrotation
			JOINT RightKnee
			{
				OFFSET -2.51996 -6.92353 0.00000
				CHANNELS 3 Zrotation Yrotation Xrotation
				JOINT RightAnkle
				{
					OFFSET -2.76109 -7.58603 0.00000
					CHANNELS 3 Zrotation Yrotation Xrotation
					JOINT RightToe
					{
						OFFSET -0.08067 -0.22163 1.86812
						CHANNELS 3 Zrotation Yrotation Xrotation
						End Site
						{
							OFFSET -0.00000 -0.00000 0.95558
						}
					}
				}
			}
		}
	}
	JOINT lowerback
	{
		OFFSET 0 0 0
		CHANNELS 3 Zrotation Yrotation Xrotation
		JOINT Chest
		{
			OFFSET 0.05537 1.92033 -0.03713
			CHANNELS 3 Zrotation Yrotation Xrotation
			JOINT Chest2
			{
				OFFSET 0.04452 1.90073 0.10860
				CHANNELS 3 Zrotation Yrotation Xrotation
				JOINT lowerneck
				{
					OFFSET 0 0 0
					CHANNELS 3 Zrotation Yrotation Xrotation
					JOINT Neck
					{
						OFFSET 0.00903 1.74649 0.02074
						CHANNELS 3 Zrotation Yrotation Xrotation
						JOINT Head
						{
							OFFSET -0.08608 1.67844 -0.12081
							CHANNELS 3 Zrotation Yrotation Xrotation
							End Site
							{
								OFFSET -0.03521 1.83380 -0.05059
							}
						}
					}
				}
				JOINT LeftCollar
				{
					OFFSET 0 0 0
					CHANNELS 3 Zrotation Yrotation Xrotation
					JOINT LeftShoulder
					{
						OFFSET 3.28197 0.84325 -0.19106
CHANNELS 3 Zrotation Xrotation Yrotation
						JOINT LeftElbow
						{
OFFSET 0 -5.243180 -0.000000
CHANNELS 3 Zrotation Xrotation Yrotation
							JOINT LeftWrist
							{
OFFSET 0 -2.989990 0.000000
CHANNELS 3 Zrotation Xrotation Yrotation
								JOINT lhand
								{
									OFFSET 0 0 0
CHANNELS 3 Zrotation Xrotation Yrotation
									JOINT LFingers
									{
OFFSET 0 -0.726740 0.000000
CHANNELS 3 Zrotation Xrotation Yrotation
										End Site
										{
OFFSET 0 -0.585920 0.000000
										}
									}
								}
								JOINT LThumb
								{
OFFSET 0 0.000000 0.000000
CHANNELS 3 Zrotation Xrotation Yrotation
									End Site
									{
OFFSET 0 -0.594870 0.594870
									}
								}
							}
						}
					}
				}
				JOINT RightCollar
				{
					OFFSET 0 0 0
					CHANNELS 3 Zrotation Yrotation Xrotation
					JOINT RightShoulder
					{
						OFFSET -3.30963 0.78377 0.14264
CHANNELS 3 Zrotation Xrotation Yrotation
						JOINT RightElbow
						{
OFFSET 0 -5.370450 0.000000
CHANNELS 3 Zrotation Xrotation Yrotation
							JOINT RightWrist
							{
OFFSET 0 -2.927920 0.000000
CHANNELS 3 Zrotation Xrotation Yrotation
								JOINT rhand
								{
									OFFSET 0 0 0
CHANNELS 3 Zrotation Xrotation Yrotation
									JOINT RFingers
									{
OFFSET 0 -0.784500 0.000000
CHANNELS 3 Zrotation Xrotation Yrotation
										End Site
										{
OFFSET 0 -0.632480 0.000000
										}
									}
								}
								JOINT RThumb
								{
OFFSET 0 0.000000 0.000000
CHANNELS 3 Zrotation Xrotation Yrotation
									End Site
									{
OFFSET 0 -0.642140 0.642140
									}
								}
							}
						}
					}
				}
			}
		}
	}
}
MOTION
Frames: 9
Frame Time: 0.008333333333333333
0.795965 17.291864 -1.420690 8.011105 -17.492776 27.181528 0.000000 0.000000 0.000000 -27.911080 -4.360061 -53.775835 3.856102 11.966451 35.613373 0.223576 0.723839 -9.223557 0.910904 -6.080502 -17.018608 0.000000 0.000000 0.000000 -0.991681 15.645403 -60.561064 -4.590067 -12.906766 39.020334 -0.027276 0.977479 -2.933864 -0.846625 5.866180 -16.397257 2.185661 -2.745440 15.533926 8.303192 -3.540622 11.153746 8.105098 -2.062759 3.721449 -2.911478 9.526332 11.048426 -3.607229 12.285599 14.130740 -0.791332 5.774821 2.804824 0.000000 0.000000 0.000000 263.212404 -81.086762 171.464052 14.790741 -23.853746 3.140858 -4.339426 6.260205 -20.185226 0.000000 0.000000 0.000000 -7.125000 0.000000 0.000000 -31.021643 47.520828 2.126350 0.000000 0.000000 0.000000 -20.703682 -46.854186 26.387445 -17.584016 -27.621221 -4.354658 -4.415371 31.004467 -9.134757 0.000000 0.000000 0.000000 7.125000 0.000000 0.000000 16.044424 20.950680 9.624169
0.813595 17.273093 -1.415518 8.242604 -17.864233 27.346617 0.000000 0.000000 0.000000 -28.257333 -4.451446 -54.162835 3.914323 12.045458 35.893089 0.223273 0.915779 -9.306650 0.978632 -6.297246 -17.649375 0.000000 0.000000 0.000000 -1.522818 15.735342 -61.103793 -4.660138 -12.990592 39.333186 -0.027858 1.154646 -2.962797 -0.832231 5.819579 -16.261839 2.923753 -2.734702 15.676890 8.047986 -3.435599 11.220975 7.389412 -1.951672 3.637760 -2.039041 9.398876 11.323868 -3.333333 12.138620 13.622036 -0.863787 5.761946 2.614726 0.000000 0.000000 0.000000 268.440387 -80.970497 173.215004 15.651788 -25.046193 3.497285 -4.022059 5.532429 -19.789864 0.000000 0.000000 0.000000 -7.125000 0.000000 0.000000 -30.536816 47.222089 1.841246 0.000000 0.000000 0.000000 -20.534266 -46.780145 25.418313 -18.154308 -28.354259 -4.622344 -4.610085 30.337798 -9.013319 0.000000 0.000000 0.000000 7.125000 0.000000 0.000000 15.920146 21.063899 9.501157
0.841137 17.265471 -1.421993 8.509907 -18.224118 27.681189 0.000000 0.000000 0.000000 -29.105523 -3.927859 -54.821982 3.877700 11.995881 35.717344 0.232311 0.116359 -9.147237 0.842304 -5.854190 -16.361912 0.000000 0.000000 0.000000 -2.052660 15.708098 -61.725954 -4.654354 -12.983665 39.307372 -0.024319 1.258368 -2.776167 -0.877561 5.971868 -16.702896 3.724117 -2.668437 16.028034 7.773229 -3.228246 11.269030 6.619741 -1.785021 3.416083 -1.377193 9.222141 11.598934 -3.310241 11.939386 12.981984 -0.985125 5.712005 2.386813 0.000000 0.000000 0.000000 -87.990292 -80.777785 172.480649 16.829895 -26.632966 4.010813 -1.941753 3.946213 -20.964370 0.000000 0.000000 0.000000 -7.125000 0.000000 0.000000 -29.353928 48.534537 2.781868 0.000000 0.000000 0.000000 -20.542330 -46.953079 23.463195 -18.543352 -28.847225 -4.808576 -4.864767 30.586673 -9.600517 0.000000 0.000000 0.000000 7.125000 0.000000 0.000000 15.687217 20.491501 9.562621
0.863728 17.248659 -1.427345 8.633964 -18.727819 28.270811 0.000000 0.000000 0.000000 -29.382244 -4.083912 -55.626324 3.904982 12.032899 35.848566 0.232362 0.177169 -9.170927 0.816605 -5.765640 -16.106113 0.000000 0.000000 0.000000 -2.625442 15.897336 -62.628826 -4.655351 -12.984815 39.311565 -0.020230 1.344279 -2.554948 -0.795460 5.692846 -15.895766 4.485657 -2.495842 16.537084 7.546026 -2.859477 11.206101 5.913618 -1.545127 2.994832 -0.659669 8.929177 12.447093 -3.451747 11.585021 12.390370 -1.190781 5.585715 2.097859 0.000000 0.000000 0.000000 -85.316981 -80.326048 171.789438 17.530714 -27.552061 4.329976 -0.242521 3.498637 -20.768544 0.000000 0.000000 0.000000 -7.125000 0.000000 0.000000 -27.745856 48.605915 2.657429 0.000000 0.000000 0.000000 -21.013530 -46.668362 21.890064 -19.151269 -29.606147 -5.105379 -5.055654 30.620686 -9.948213 0.000000 0.000000 0.000000 7.125000 0.000000 0.000000 15.523461 20.150735 9.579032
0.880413 17.236821 -1.426773 8.825094 -19.315821 28.788645 0.000000 0.000000 0.000000 -29.684140 -4.302735 -56.239151 3.907836 12.036770 35.862046 0.228734 0.518708 -9.237170 0.907597 -6.070865 -16.990175 0.000000 0.000000 0.000000 -3.294636 16.159458 -63.395205 -4.640920 -12.967647 39.247374 -0.016847 1.371011 -2.352199 -0.871842 5.952809 -16.647677 4.744465 -2.314252 16.951758 7.303351 -2.574729 11.395502 5.479673 -1.381297 2.941013 0.416956 8.652113 13.717300 -3.950480 11.308401 11.741274 -1.590160 5.510513 1.772100 0.000000 0.000000 0.000000 -83.829432 -79.890590 171.533531 17.580111 -27.616161 4.352858 0.927345 4.396867 -21.007476 0.000000 0.000000 0.000000 -7.125000 0.000000 0.000000 -26.827429 48.987196 2.823890 0.000000 0.000000 0.000000 -21.429866 -46.957923 20.406526 -19.509341 -30.046713 -5.283470 -5.151806 30.643300 -10.013493 0.000000 0.000000 0.000000 7.125000 0.000000 0.000000 15.451003 20.085088 9.554763
0.890796 17.237768 -1.420280 8.876510 -19.663984 29.339779 0.000000 0.000000 0.000000 -29.791419 -4.532061 -56.722804 3.880577 11.999809 35.731349 0.221455 0.678002 -9.161700 0.841114 -5.849481 -16.348335 0.000000 0.000000 0.000000 -3.643666 16.276900 -63.981217 -4.585463 -12.901200 38.999729 -0.013039 1.481821 -2.133327 -0.860729 5.916152 -16.541274 4.992710 -2.104608 16.876958 7.298666 -2.350269 11.980551 5.299361 -1.261115 3.608273 0.757365 8.282350 13.973185 -3.704617 10.839296 11.923090 -1.565701 5.287732 1.780045 0.000000 0.000000 0.000000 -85.601387 -79.376394 169.173462 17.288456 -27.236437 4.218522 2.121849 5.075455 -21.381569 0.000000 0.000000 0.000000 -7.125000 0.000000 0.000000 -25.948027 49.497783 3.063246 0.000000 0.000000 0.000000 -22.571714 -47.858050 18.371844 -19.538067 -30.081785 -5.297875 -4.640560 30.626603 -9.729110 0.000000 0.000000 0.000000 7.125000 0.000000 0.000000 15.831367 20.372572 9.701721
0.888641 17.236785 -1.408703 8.769250 -19.784727 29.922905 0.000000 0.000000 0.000000 -29.620164 -4.781476 -57.222767 3.881271 12.000800 35.734690 0.219272 0.775966 -9.162275 0.820287 -5.778915 -16.144265 0.000000 0.000000 0.000000 -3.976116 16.638743 -64.428714 -4.542016 -12.848725 38.804774 -0.015516 1.179328 -2.239849 -0.859761 5.912850 -16.531691 5.448831 -1.988878 17.308879 7.229230 -2.120299 12.139355 4.951293 -1.118948 3.532954 1.556222 8.119918 14.478724 -3.754076 10.709211 11.937528 -1.732443 5.254785 1.749975 0.000000 0.000000 0.000000 -82.868904 -78.837949 171.954039 16.861612 -26.674933 4.025019 3.064116 5.372945 -22.325228 0.000000 0.000000 0.000000 -7.125000 0.000000 0.000000 -25.594536 50.489783 3.672112 0.000000 0.000000 0.000000 -23.272702 -48.023311 16.652884 -19.476965 -30.006982 -5.267233 -4.561562 30.290968 -9.476658 0.000000 0.000000 0.000000 7.125000 0.000000 0.000000 15.909744 20.618005 9.661930
0.885567 17.253589 -1.375723 9.024922 -19.734322 30.083997 0.000000 0.000000 0.000000 -29.925975 -4.974414 -56.938473 3.755328 11.827486 35.124519 0.208890 0.814047 -8.968079 0.885375 -5.998090 -16.778881 0.000000 0.000000 0.000000 -4.251944 16.458724 -64.426192 -4.494369 -12.790703 38.589933 -0.015756 1.120671 -2.246961 -0.873287 5.957021 -16.660070 5.948339 -2.074955 17.670334 6.912818 -2.140108 12.292461 4.342673 -1.082819 3.489498 1.707743 8.042094 14.703138 -2.945913 10.564183 12.210013 -1.498417 5.181071 1.758155 0.000000 0.000000 0.000000 -77.859989 -78.588170 177.228609 16.576234 -26.295800 3.897767 4.697883 5.843134 -22.811295 0.000000 0.000000 0.000000 -7.125000 0.000000 0.000000 -24.351940 51.188500 3.909132 0.000000 0.000000 0.000000 -23.423576 -48.008885 15.145663 -19.169951 -29.629286 -5.114592 -4.615732 30.793580 -9.118310 0.000000 0.000000 0.000000 7.125000 0.000000 0.000000 15.906081 20.962536 9.530268
0.872490 17.256437 -1.351332 8.813333 -19.553785 30.608704 0.000000 0.000000 0.000000 -29.560532 -5.274822 -57.190923 3.729765 11.791828 34.999599 0.205128 0.890286 -8.927455 0.910054 -6.078831 -17.013368 0.000000 0.000000 0.000000 -4.155954 16.535927 -64.720345 -4.467998 -12.758377 38.470740 -0.015385 0.971812 -2.205894 -1.068843 6.572035 -18.453661 6.054950 -2.032895 17.682602 7.082821 -2.075989 12.321353 4.459509 -1.053390 3.521399 1.927802 8.098331 15.220335 -2.874340 10.644192 12.244192 -1.535143 5.228353 1.700390 0.000000 0.000000 0.000000 -73.258410 -78.484293 -177.940346 16.340335 -25.979934 3.793825 4.890797 6.324203 -23.431082 0.000000 0.000000 0.000000 -7.125000 0.000000 0.000000 -24.515673 51.782542 4.310243 0.000000 0.000000 0.000000 -24.120661 -47.928658 13.862933 -18.746080 -29.101977 -4.906755 -3.999611 30.742429 -9.627657 0.000000 0.000000 0.000000 7.125000 0.000000 0.000000 16.285755 20.484797 9.960901
